<?xml version="1.0" encoding="UTF-8"?>
<svg id="Layer_1" data-name="Layer 1" xmlns="http://www.w3.org/2000/svg" viewBox="0 0 1080 1080">
  <defs>
    <style>
      .cls-1 {
        fill: #f2f1ec;
      }
    </style>
  </defs>
  <path class="cls-1" d="M471.69,754.33h-90.96c-6.3,0-11.4,5.1-11.4,11.4v90.96c0,6.3,5.1,11.4,11.4,11.4h90.96c6.3,0,11.4-5.1,11.4-11.4v-90.96c0-6.3-5.1-11.4-11.4-11.4ZM698.2,439.5c-66.36,6.77-117.63,27.79-163.9,46.76-49.82,20.55-93.36,38.37-153.74,40.35-6.2.2-11.22,5.15-11.22,11.36v90.99c0,6.38,5.29,11.63,11.67,11.46,82.72-2.15,143.07-26.91,196.51-48.85,40.99-16.85,77.75-31.92,123.04-37.84,5.73-.75,10.1-5.51,10.1-11.29v-91.54c0-6.7-5.8-12.07-12.47-11.39ZM698.2,211.96c-66.36,6.77-117.63,27.8-163.9,46.88-49.82,20.43-93.36,38.25-153.74,40.22-6.2.2-11.22,5.15-11.22,11.36v90.99c0,6.38,5.29,11.63,11.67,11.46,82.72-2.15,143.07-26.91,196.51-48.85,40.99-16.85,77.74-31.92,123.02-37.74,5.74-.74,10.13-5.5,10.13-11.29v-91.64c0-6.7-5.8-12.07-12.47-11.39Z"/>
</svg>