<?xml version="1.0" encoding="UTF-8"?>
<svg id="Layer_1" data-name="Layer 1" xmlns="http://www.w3.org/2000/svg" viewBox="0 0 1920 540">
  <defs>
    <style>
      .cls-1 {
        fill: #182741;
      }
    </style>
  </defs>
  <path class="cls-1" d="M137.15,382.81h-47.87c-3.31,0-6,2.69-6,6v47.87c0,3.31,2.69,6,6,6h47.87c3.31,0,6-2.69,6-6v-47.87c0-3.31-2.69-6-6-6ZM256.37,217.11c-34.92,3.57-61.91,14.63-86.26,24.61-26.22,10.82-49.14,20.2-80.91,21.24-3.27.11-5.9,2.71-5.9,5.98v47.89c0,3.36,2.79,6.12,6.14,6.03,43.53-1.13,75.3-14.16,103.43-25.71,21.58-8.87,40.92-16.8,64.76-19.92,3.02-.39,5.32-2.9,5.32-5.94v-48.18c0-3.53-3.05-6.35-6.56-6ZM256.37,97.35c-34.92,3.57-61.91,14.63-86.26,24.68-26.22,10.75-49.14,20.13-80.91,21.17-3.27.11-5.9,2.71-5.9,5.98v47.89c0,3.36,2.79,6.12,6.14,6.03,43.53-1.13,75.3-14.16,103.43-25.71,21.57-8.87,40.92-16.8,64.75-19.86,3.02-.39,5.33-2.9,5.33-5.94v-48.23c0-3.53-3.05-6.35-6.56-6Z"/>
  <g>
    <g>
      <path class="cls-1" d="M405.14,363.18v-189.61h119.72v24.11h-89.93v58.51h74.49v23.84h-74.49v83.16h-29.79Z"/>
      <path class="cls-1" d="M576.84,366.43c-14.99,0-27-5.1-36.03-15.3-9.03-10.2-13.54-25.33-13.54-45.37v-76.93h29.79v73.95c0,12.64,2.48,22.17,7.45,28.58,4.97,6.41,11.96,9.61,20.99,9.61,10.47,0,18.69-3.7,24.65-11.1,5.96-7.4,8.94-17.97,8.94-31.69v-69.34h29.79v134.35h-29.79v-20.86c-3.98,7.58-9.53,13.5-16.66,17.74-7.13,4.24-15.67,6.37-25.6,6.37Z"/>
      <path class="cls-1" d="M671.24,363.18v-134.35h29.79v21.4c4.51-7.58,10.65-13.58,18.42-18.01,7.76-4.42,16.61-6.64,26.54-6.64,16.43,0,29.25,5.1,38.47,15.3,9.21,10.2,13.81,25.33,13.81,45.37v76.93h-29.79v-73.95c0-12.64-2.57-22.16-7.72-28.58-5.14-6.41-12.96-9.62-23.43-9.62s-19.14,3.7-26,11.1c-6.87,7.41-10.29,17.97-10.29,31.69v69.34h-29.79Z"/>
      <path class="cls-1" d="M880.13,366.43c-12.82,0-24.24-3.07-34.27-9.21-10.02-6.14-17.88-14.58-23.56-25.33-5.69-10.74-8.53-22.8-8.53-36.16s2.84-25.6,8.53-36.16c5.69-10.56,13.54-18.87,23.56-24.92,10.02-6.05,21.53-9.07,34.54-9.07,10.47,0,19.68,2.08,27.63,6.23,7.94,4.16,14.17,9.84,18.69,17.06v-75.3h29.79v189.61h-29.79v-20.59c-4.16,6.14-10.02,11.65-17.61,16.52-7.58,4.87-17.25,7.31-28.98,7.31ZM885.55,340.43c8.13,0,15.31-1.9,21.53-5.69,6.23-3.79,11.11-9.03,14.63-15.71,3.52-6.68,5.28-14.36,5.28-23.02s-1.76-16.61-5.28-23.3c-3.52-6.68-8.4-11.87-14.63-15.58-6.23-3.7-13.41-5.55-21.53-5.55s-15.03,1.85-21.26,5.55c-6.23,3.7-11.15,8.9-14.76,15.58-3.61,6.68-5.42,14.36-5.42,23.02s1.8,16.62,5.42,23.3c3.61,6.68,8.53,11.92,14.76,15.71,6.23,3.79,13.32,5.69,21.26,5.69Z"/>
      <path class="cls-1" d="M1051.32,363.18v-189.61h119.72v24.11h-89.93v58.51h74.49v23.84h-74.49v83.16h-29.8Z"/>
      <path class="cls-1" d="M1183.01,363.18v-189.61h29.8v189.61h-29.8Z"/>
      <path class="cls-1" d="M1300.03,366.43c-13.37,0-25.37-2.94-36.03-8.8-10.66-5.87-19.1-14.13-25.33-24.79-6.23-10.65-9.34-22.93-9.34-36.84s3.11-26.41,9.34-36.97c6.23-10.56,14.71-18.78,25.46-24.65,10.74-5.87,22.71-8.8,35.89-8.8s25.6,2.94,36.16,8.8c10.56,5.87,18.96,14.09,25.19,24.65,6.23,10.56,9.34,22.89,9.34,36.97s-3.12,26.19-9.34,36.84c-6.23,10.66-14.67,18.92-25.33,24.79-10.66,5.87-22.66,8.8-36.03,8.8ZM1299.76,340.7c7.4,0,14.13-1.67,20.18-5.01,6.05-3.34,10.88-8.3,14.49-14.9,3.61-6.59,5.41-14.85,5.41-24.78s-1.8-18.19-5.41-24.79c-3.62-6.59-8.45-11.55-14.49-14.9-6.05-3.34-12.6-5.01-19.64-5.01s-13.91,1.67-20.04,5.01c-6.14,3.34-11.02,8.31-14.63,14.9-3.61,6.59-5.42,14.86-5.42,24.79s1.8,18.19,5.42,24.78c3.61,6.59,8.44,11.56,14.49,14.9,6.05,3.34,12.6,5.01,19.64,5.01Z"/>
      <path class="cls-1" d="M1412.05,363.18l-39.28-134.35h29.52l28.98,114.31h-7.31l33.05-114.31h33.31l33.32,114.31h-7.58l28.98-114.31h29.8l-39.28,134.35h-30.88l-34.94-118.64h8.13l-34.94,118.64h-30.88Z"/>
    </g>
    <g>
      <path class="cls-1" d="M1812.18,228.83h-128.48c-13.56,0-24.54,10.99-24.54,24.54v84.09c0,13.56,10.99,24.54,24.54,24.54h128.48c13.55,0,24.54-10.99,24.54-24.54v-84.09c0-13.56-10.99-24.54-24.54-24.54ZM1747.36,313.24c-2.59,4.74-6.23,8.5-10.83,11.18-4.59,2.67-9.99,4.03-16.06,4.03s-11.4-1.36-16.02-4.03c-4.63-2.68-8.29-6.44-10.88-11.18-2.58-4.72-3.89-10.24-3.89-16.41s1.31-11.69,3.89-16.41c2.58-4.74,6.24-8.5,10.88-11.18,4.62-2.67,10.01-4.03,16.02-4.03s11.47,1.36,16.06,4.03c4.6,2.68,8.25,6.44,10.83,11.18,2.58,4.73,3.89,10.25,3.89,16.41s-1.31,11.68-3.89,16.41ZM1803.3,317.4c-1.34,2.39-3.16,4.43-5.39,6.07-2.19,1.61-4.67,2.86-7.37,3.71-2.69.85-5.47,1.27-8.27,1.27s-5.61-.4-8.39-1.18c-2.82-.79-5.45-2.07-7.82-3.8-2.4-1.75-4.43-4.05-6.02-6.86-1.59-2.8-2.58-6.21-2.93-10.12l-.13-1.43h13.25l.19,1.09c.45,2.58,1.32,4.57,2.56,5.91,1.28,1.38,2.73,2.32,4.42,2.87,3.77,1.22,7.43,1.08,10.1-.04,1.38-.58,2.47-1.38,3.24-2.36.74-.94,1.1-1.96,1.1-3.12,0-1.36-.36-2.54-1.1-3.61-.47-.67-1.74-1.61-5.11-2.22l-9.46-1.76c-5.24-1-9.37-3.12-12.28-6.31-2.95-3.22-4.45-7.08-4.45-11.48,0-3.95,1.01-7.37,3-10.18,1.97-2.78,4.66-4.94,7.98-6.43,3.28-1.46,6.96-2.21,10.92-2.21s7.88.71,11.19,2.11c3.37,1.43,6.15,3.68,8.26,6.69,2.11,3,3.38,6.89,3.79,11.57l.12,1.43h-13.44l-.17-1.11c-.35-2.26-1.01-3.97-1.97-5.09-.97-1.14-2.06-1.9-3.35-2.33-2.65-.88-5.21-.92-8.23-.06-1.37.38-2.53,1.04-3.46,1.94-.83.81-1.23,1.95-1.23,3.5,0,1.23.44,2.31,1.36,3.29.94,1.01,2.68,1.75,5.17,2.2l8.71,1.59c5.19.93,9.38,2.8,12.44,5.55,3.18,2.84,4.79,7.07,4.79,12.57,0,3.12-.69,5.92-2.05,8.34Z"/>
      <path class="cls-1" d="M1736.73,296.83c0-3.85-.69-7.21-2.04-9.97-1.33-2.72-3.21-4.83-5.58-6.28-2.37-1.45-5.25-2.19-8.56-2.19s-6.21.74-8.61,2.2c-2.39,1.45-4.28,3.56-5.61,6.28-1.36,2.76-2.04,6.12-2.04,9.97s.69,7.21,2.04,9.97c1.33,2.72,3.22,4.83,5.61,6.28,2.4,1.46,5.3,2.2,8.61,2.2s6.19-.74,8.56-2.19c2.37-1.45,4.25-3.56,5.58-6.28,1.36-2.76,2.04-6.12,2.04-9.97Z"/>
    </g>
  </g>
</svg>